<?xml version="1.0" encoding="utf-8"?>
<!-- Generator: Adobe Illustrator 26.0.1, SVG Export Plug-In . SVG Version: 6.00 Build 0)  -->
<svg version="1.1" id="Layer_1" xmlns="http://www.w3.org/2000/svg" xmlns:xlink="http://www.w3.org/1999/xlink" x="0px" y="0px"
	 viewBox="0 0 366.71 84.08" style="enable-background:new 0 0 366.71 84.08;" xml:space="preserve">
<style type="text/css">
	.st0{fill:#EB6366;}
	.st1{fill:#251F4E;}
	.st2{fill:#B1241B;}
</style>
<g>
	<path class="st0" d="M290.58,80.27h-1.96c-4.91,0-8.89-3.98-8.89-8.89V27.35l10.84,12.44V80.27z"/>
	<polygon class="st0" points="329.15,83.4 314.67,83.4 305.7,73.06 312.99,65.04 	"/>
	<path class="st1" d="M364.21,1.63l-69.1,78.62l-0.17,0.19c-0.29,0.32-0.59,0.63-0.91,0.92c-0.73,0.7-1.59,1.28-2.52,1.69
		c-0.02,0-0.04,0.02-0.09,0.06c-0.18,0.04-0.34,0.11-0.51,0.17c-2,0.46-4.5,0.63-7.34-1.27c-1.78-1.26-3.36-3.2-3.75-5.61
		c-0.04-0.21-0.08-0.46-0.08-0.68c-0.02-0.14-0.02-0.29-0.02-0.43c0-0.01,0-0.01,0-0.02c0.01-0.19,0.01-0.38,0.01-0.53l-0.01-4.97
		c0,0.06,0,0.1,0.01,0.16c0,0.1,0.01,0.21,0.03,0.31c0.18,1.1,0.9,1.99,1.71,2.57c1.15,0.77,2.17,0.79,3.02,0.64
		c0.11-0.02,0.22-0.04,0.33-0.07c0.08-0.02,0.16-0.06,0.23-0.08c0.02-0.01,0.03-0.02,0.04-0.02c1.71-0.67,3.64-2.1,5.46-4.29
		l1.19-1.36l39.94-45.55c0.62-0.71,18.01-20.44,18.01-20.44H364.21z"/>
</g>
<g>
	<g>
		<path class="st2" d="M51.22,83.47L45.44,70H18.91l-5.69,13.47H3.44l23.89-56.12h9.78L22.84,60.86H41.6
			C32.62,39.8,27.86,28.63,27.33,27.35h9.78L61,83.47H51.22z"/>
		<path class="st2" d="M65.92,69.48c-2.49-4.29-3.74-8.98-3.74-14.07c0-5.08,1.25-9.77,3.74-14.07c2.49-4.29,5.9-7.7,10.22-10.22
			s9.02-3.77,14.11-3.77c2.85,0,5.62,0.43,8.31,1.3s5.16,2.06,7.4,3.58c2.24,1.53,4.22,3.35,5.95,5.49l-6.18,6.18
			c-1.78-2.44-4.03-4.36-6.75-5.76c-2.72-1.4-5.63-2.1-8.73-2.1c-5.34,0-9.9,1.89-13.69,5.68c-3.79,3.79-5.68,8.35-5.68,13.69
			s1.89,9.9,5.68,13.69c3.79,3.79,8.35,5.68,13.69,5.68c3.1,0,6.01-0.7,8.73-2.1c2.72-1.4,4.97-3.32,6.75-5.76l6.18,6.18
			c-2.59,3.2-5.78,5.73-9.57,7.59c-3.79,1.85-7.82,2.78-12.08,2.78c-5.08,0-9.79-1.26-14.11-3.77
			C71.81,77.18,68.41,73.77,65.92,69.48z"/>
		<path class="st2" d="M158.09,27.35v36.88c0,5.47-1.94,10.14-5.82,14.03c-3.88,3.88-8.56,5.82-14.03,5.82s-10.15-1.94-14.03-5.82
			c-3.88-3.88-5.82-8.56-5.82-14.03V27.35h8.67v36.88c0,3.07,1.09,5.7,3.28,7.89c2.19,2.19,4.82,3.28,7.89,3.28
			c3.07,0,5.7-1.09,7.89-3.28c2.19-2.19,3.28-4.82,3.28-7.89V27.35H158.09z"/>
		<path class="st2" d="M210.52,36.02h-44.62v-8.67h44.62V36.02z M192.55,82.05h-8.67V36.02h8.67V82.05z"/>
		<path class="st2" d="M245.09,27.35c3.81,0,7.45,0.74,10.9,2.21c3.46,1.48,6.44,3.47,8.96,5.99c2.52,2.52,4.51,5.5,5.99,8.96
			c1.47,3.46,2.21,7.09,2.21,10.9c0,5.08-1.26,9.77-3.77,14.07c-2.52,4.3-5.92,7.7-10.22,10.22c-4.3,2.52-8.99,3.77-14.07,3.77
			c-5.08,0-9.79-1.26-14.11-3.77c-4.32-2.52-7.73-5.92-10.22-10.22c-2.49-4.29-3.74-8.98-3.74-14.07c0-5.08,1.25-9.77,3.74-14.07
			c2.49-4.29,5.9-7.7,10.22-10.22S240.01,27.35,245.09,27.35z M258.74,69.06c3.76-3.76,5.64-8.31,5.64-13.65s-1.88-9.89-5.64-13.65
			c-3.76-3.76-8.31-5.64-13.65-5.64c-5.34,0-9.89,1.88-13.65,5.64c-3.76,3.76-5.64,8.31-5.64,13.65s1.88,9.89,5.64,13.65
			c3.76,3.76,8.31,5.64,13.65,5.64C250.43,74.7,254.98,72.82,258.74,69.06z"/>
	</g>
</g>
</svg>
